<svg width="254" height="254" viewBox="0 0 254 254" fill="none" xmlns="http://www.w3.org/2000/svg">
<path d="M127 215C116.461 215 106.588 213.014 97.379 209.042C88.1703 205.069 80.1207 199.631 73.23 192.728C66.3393 185.824 60.9117 177.759 56.947 168.533C52.9823 159.306 51 149.414 51 138.855H60.5C60.5 157.415 66.9537 173.162 79.861 186.093C92.7683 199.025 108.481 205.488 127 205.482C145.519 205.476 161.235 199.013 174.148 186.093C187.062 173.174 193.513 157.428 193.5 138.855C193.487 120.282 187.037 104.539 174.148 91.6262C161.26 78.7133 145.544 72.2474 127 72.2283H123.39H107.252L132.481 40L139.207 46.853L123.38 62.7102H127C137.539 62.7102 147.412 64.6963 156.621 68.6686C165.83 72.6408 173.879 78.0788 180.77 84.9826C187.661 91.8864 193.088 99.9514 197.053 109.178C201.018 118.404 203 128.296 203 138.855C203 149.414 201.018 159.306 197.053 168.533C193.088 177.759 187.661 185.827 180.77 192.737C173.879 199.647 165.83 205.082 156.621 209.042C147.412 213.001 137.539 214.987 127 215Z" fill="black"/>
<path d="M177.417 148.167L157.25 133.042L162.75 125.708L167.003 128.898C165.112 121.41 161.156 114.602 155.585 109.251C150.015 103.901 143.054 100.221 135.495 98.6323C127.937 97.0433 120.084 97.6085 112.83 100.264C105.577 102.919 99.2147 107.557 94.468 113.65C89.7212 119.743 86.7807 127.047 85.981 134.729C85.1814 142.412 86.5548 150.165 89.9449 157.105C93.335 164.045 98.6056 169.894 105.157 173.986C111.708 178.078 119.276 180.248 127 180.25C135.029 180.253 142.884 177.913 149.603 173.516C156.321 169.12 161.61 162.859 164.822 155.5L166.655 151.297L175.056 154.968L173.223 159.167C169.298 168.16 162.834 175.812 154.623 181.186C146.413 186.559 136.813 189.42 127 189.417C99.1562 189.417 76.5833 166.844 76.5833 139C76.5833 111.156 99.1562 88.5833 127 88.5833C154.844 88.5833 177.417 111.156 177.417 139V148.167ZM149.014 139L115.542 161.316V116.679L149.014 139ZM124.708 133.812V144.188L132.486 139L124.708 133.812Z" fill="black"/>
</svg>
